<svg width="685" height="342" viewBox="0 0 685 342" fill="none" xmlns="http://www.w3.org/2000/svg">
<g style="mix-blend-mode:overlay">
<path fill-rule="evenodd" clip-rule="evenodd" d="M0.235413 242.108L28.5916 251.306C56.9479 261.424 114.606 281.66 171.318 267.862C228.03 254.985 285.688 208.075 342.4 185.079C399.113 162.084 456.771 162.084 513.483 162.084C570.195 162.084 627.853 162.084 656.209 162.084H684.566V341.447H656.209C627.853 341.447 570.195 341.447 513.483 341.447C456.771 341.447 399.113 341.447 342.4 341.447C285.688 341.447 228.03 341.447 171.318 341.447C114.606 341.447 56.9479 341.447 28.5916 341.447H0.235413V242.108Z" fill="url(#paint0_linear_5_21)"/>
</g>
<g style="mix-blend-mode:overlay">
<path fill-rule="evenodd" clip-rule="evenodd" d="M0.235413 211.854L28.5916 221.052C56.9479 231.17 114.606 251.405 171.318 237.608C228.03 224.731 285.688 177.821 342.4 154.825C399.113 131.83 456.771 131.83 513.483 131.83C570.195 131.83 627.853 131.83 656.209 131.83H684.566V311.193H656.209C627.853 311.193 570.195 311.193 513.483 311.193C456.771 311.193 399.113 311.193 342.4 311.193C285.688 311.193 228.03 311.193 171.318 311.193C114.606 311.193 56.9479 311.193 28.5916 311.193H0.235413V211.854Z" fill="url(#paint1_linear_5_21)"/>
</g>
<g style="mix-blend-mode:overlay">
<path fill-rule="evenodd" clip-rule="evenodd" d="M0.235413 173.253L28.5916 182.452C56.9479 192.569 114.606 212.805 171.318 199.008C228.03 186.131 285.688 139.22 342.4 116.225C399.113 93.2299 456.771 93.2299 513.483 93.2299C570.195 93.2299 627.853 93.2299 656.209 93.2299H684.566V272.593H656.209C627.853 272.593 570.195 272.593 513.483 272.593C456.771 272.593 399.113 272.593 342.4 272.593C285.688 272.593 228.03 272.593 171.318 272.593C114.606 272.593 56.9479 272.593 28.5916 272.593H0.235413V173.253Z" fill="url(#paint2_linear_5_21)"/>
</g>
<g style="mix-blend-mode:overlay">
<path fill-rule="evenodd" clip-rule="evenodd" d="M0.235413 142.999L28.5916 152.197C56.9479 162.315 114.605 182.551 171.318 168.754C228.03 155.877 285.688 108.966 342.4 85.971C399.113 62.9757 456.771 62.9757 513.483 62.9757C570.195 62.9757 627.853 62.9757 656.209 62.9757H684.566V242.339H656.209C627.853 242.339 570.195 242.339 513.483 242.339C456.771 242.339 399.113 242.339 342.4 242.339C285.688 242.339 228.03 242.339 171.318 242.339C114.605 242.339 56.9479 242.339 28.5916 242.339H0.235413V142.999Z" fill="url(#paint3_linear_5_21)"/>
</g>
<g style="mix-blend-mode:overlay">
<path fill-rule="evenodd" clip-rule="evenodd" d="M0.235413 112.745L28.5916 121.943C56.9479 132.061 114.606 152.297 171.318 138.5C228.03 125.622 285.688 78.7121 342.401 55.7168C399.113 32.7216 456.771 32.7216 513.483 32.7216C570.195 32.7216 627.853 32.7216 656.209 32.7216H684.566V212.085H656.209C627.853 212.085 570.195 212.085 513.483 212.085C456.771 212.085 399.113 212.085 342.401 212.085C285.688 212.085 228.03 212.085 171.318 212.085C114.606 212.085 56.9479 212.085 28.5916 212.085H0.235413V112.745Z" fill="url(#paint4_linear_5_21)"/>
</g>
<defs>
<linearGradient id="paint0_linear_5_21" x1="342.4" y1="162.084" x2="342.4" y2="341.447" gradientUnits="userSpaceOnUse">
<stop stop-color="#C4E5FF" stop-opacity="0.61"/>
<stop offset="1" stop-color="#1B364B" stop-opacity="0"/>
</linearGradient>
<linearGradient id="paint1_linear_5_21" x1="342.4" y1="131.83" x2="342.4" y2="311.193" gradientUnits="userSpaceOnUse">
<stop stop-color="#C3E5FF" stop-opacity="0.61"/>
<stop offset="1" stop-color="#1B364B" stop-opacity="0"/>
</linearGradient>
<linearGradient id="paint2_linear_5_21" x1="342.4" y1="93.2299" x2="342.4" y2="272.593" gradientUnits="userSpaceOnUse">
<stop stop-color="#C3E5FF" stop-opacity="0.61"/>
<stop offset="1" stop-color="#1B364B" stop-opacity="0"/>
</linearGradient>
<linearGradient id="paint3_linear_5_21" x1="342.4" y1="62.9757" x2="342.4" y2="242.339" gradientUnits="userSpaceOnUse">
<stop stop-color="#C3E5FF" stop-opacity="0.61"/>
<stop offset="1" stop-color="#1B364B" stop-opacity="0"/>
</linearGradient>
<linearGradient id="paint4_linear_5_21" x1="342.4" y1="32.7216" x2="342.4" y2="212.085" gradientUnits="userSpaceOnUse">
<stop stop-color="#C3E5FF" stop-opacity="0.61"/>
<stop offset="1" stop-color="#1B364B" stop-opacity="0"/>
</linearGradient>
</defs>
</svg>
